<?xml version="1.0" encoding="UTF-8" standalone="no"?>
<!-- Created with Inkscape (http://www.inkscape.org/) -->

<svg
   version="1.1"
   id="svg1"
   width="1024"
   height="1024"
   viewBox="0 0 1024 1024"
   sodipodi:docname="Gemini_Generated_Image_7f1j657f1j657f1j.png"
   inkscape:export-filename="Gemini_Generated_Image_7f1j657f1j657f1j.svg"
   inkscape:export-xdpi="96"
   inkscape:export-ydpi="96"
   xmlns:inkscape="http://www.inkscape.org/namespaces/inkscape"
   xmlns:sodipodi="http://sodipodi.sourceforge.net/DTD/sodipodi-0.dtd"
   xmlns="http://www.w3.org/2000/svg"
   xmlns:svg="http://www.w3.org/2000/svg">
  <defs
     id="defs1" />
  <sodipodi:namedview
     id="namedview1"
     pagecolor="#ffffff"
     bordercolor="#000000"
     borderopacity="0.25"
     inkscape:showpageshadow="2"
     inkscape:pageopacity="0.0"
     inkscape:pagecheckerboard="0"
     inkscape:deskcolor="#d1d1d1">
    <inkscape:page
       x="0"
       y="0"
       width="1024"
       height="1024"
       id="page2"
       margin="0"
       bleed="0" />
  </sodipodi:namedview>
  <g
     inkscape:groupmode="layer"
     inkscape:label="Image"
     id="g1">
    <ellipse
       style="display:inline;fill:none;fill-opacity:1"
       id="path46"
       cx="538.40149"
       cy="452.59668"
       rx="280.04419"
       ry="256.47147" />
    <path
       id="path45"
       style="fill:#80ed99;fill-opacity:1"
       d="m 492.44531,248.48438 c -29.65997,0.84698 -53.15413,5.38406 -81.25976,15.69531 -33.42355,12.26227 -57.71569,27.68021 -84.36328,53.54297 -41.15616,39.94403 -66.23957,87.74513 -75.30274,143.50586 -1.81847,11.18803 -2.20168,17.69579 -2.23828,38 -0.0499,27.7262 1.21567,38.84941 7.11133,62.5 8.42467,33.79571 22.34458,62.66247 43.8789,91 7.43175,9.77963 21.37916,25.5 22.625,25.5 10e-4,0 0.003,10e-5 0.004,0 10e-4,-2e-4 0.005,-0.002 0.006,-0.002 0.26939,-0.0994 1.04548,-3.32261 1.73828,-7.24804 2.45683,-13.92041 10.79314,-32.71951 20.11524,-45.36133 6.514,-8.83372 21.17575,-23.61885 32.42578,-32.69922 10.12101,-8.1691 21.02633,-15.48549 62.11133,-41.66211 36.30182,-23.1291 54.76271,-37.65885 71.99218,-56.66797 15.11847,-16.68008 25.66041,-32.65358 33.56836,-50.85937 4.56188,-10.50243 4.18017,-6.77088 -0.86914,8.5 -6.79639,20.55468 -18.37033,38.6533 -37.30273,58.33007 -18.63858,19.3714 -31.00745,29.20947 -70.09961,55.75586 -35.9656,24.42324 -47.98099,33.92412 -63.68946,50.35547 -19.83583,20.74863 -30.98301,42.16391 -34.30468,65.9082 -0.99157,7.08808 -0.96468,8.87633 0.15429,10.22461 7.61902,9.18036 61.88907,41.76739 59.46289,35.70508 -0.39147,-0.97817 -1.81805,-6.05429 -3.16992,-11.27929 -4.38037,-16.93014 -3.10144,-38.99735 3.23438,-55.83008 3.88661,-10.32577 11.96719,-24.95134 19.15429,-34.66992 7.65482,-10.35103 33.45656,-36.527 60.25782,-61.13086 19.78278,-18.1608 39.86519,-39.25417 51.28711,-53.86914 23.15522,-29.62835 43.84415,-70.75224 51.56836,-102.5 1.67268,-6.875 3.2706,-13.4 3.54882,-14.5 0.98889,-3.9099 -0.55181,14.15611 -2.0039,23.5 -7.09702,45.66786 -27.64693,86.78721 -64.96875,130 -5.46274,6.325 -16.45768,18.475 -24.4336,27 -43.08557,46.05165 -56.54011,65.61338 -63.61718,92.5 -2.56193,9.73307 -2.576,32.16522 -0.0274,42 2.89398,11.16737 10.70782,26.34257 16.83985,32.70312 5.29918,5.49666 5.31522,5.50604 14.03711,6.75195 4.8025,0.68603 12.0025,1.58993 16,2.00977 28.88702,3.03389 66.14908,-0.69377 95.44531,-9.54883 44.71143,-13.51445 89.34105,-42.57584 118.68945,-77.28711 13.6549,-16.15 18.19583,-22.84491 32.76953,-48.3125 13.4825,-23.56093 23.65572,-55.73935 27.44922,-86.8164 2.2987,-18.83147 1.54131,-53.37956 -1.55469,-70.8711 -11.3595,-64.17929 -46.18791,-120.78776 -98.51172,-160.11523 -45.83536,-34.45062 -99.63042,-51.4177 -157.75781,-49.75781 z m -0.82617,66.33593 c 6.98996,-0.28595 14.02773,-0.16402 21.08398,0.37891 56.32386,4.33369 103.7859,30.72023 137.89844,76.66406 16.8981,22.7589 27.92367,50.05597 32.63477,80.79688 2.3521,15.34764 1.61914,45.61063 -1.47656,60.94726 -3.0449,15.08453 -8.08691,29.94587 -15.06641,44.4082 -28.2077,58.44913 -79.03373,95.54673 -143.50781,104.74805 -12.14756,1.73359 -36.16594,1.70947 -44.13282,-0.0449 -2.10754,-0.46411 -2.11478,-0.55841 -0.67773,-8.23047 2.17757,-11.62549 5.77867,-21.45009 11.97461,-32.67187 7.41628,-13.432 14.28053,-23.16311 38.54297,-54.63477 23.19976,-30.09321 31.41073,-41.443 42.22656,-58.37305 9.51491,-14.89372 21.80373,-39.20502 28.0957,-55.58007 2.64166,-6.875 4.91271,-12.64616 5.04493,-12.82422 0.4169,-0.56142 6.24412,2.73547 21.17187,11.97656 7.9611,4.92834 14.60417,8.82282 14.76367,8.6543 0.2813,-0.29727 -16.30988,-47.33476 -28.50195,-80.80664 -3.30555,-9.075 -8.18605,-22.48866 -10.84766,-29.8086 -2.66161,-7.31994 -5.24935,-13.28611 -5.75,-13.25781 -0.50066,0.0283 -13.46926,9.84191 -28.81836,21.80859 -57.47145,44.8067 -66.24543,51.61443 -72.34179,56.12891 -3.43749,2.54554 -6.25136,4.85391 -6.25196,5.12891 -6.1e-4,0.27496 9.45053,0.36172 21.00196,0.19336 l 21.00195,-0.30665 -3.67578,6.30665 c -12.1252,20.79651 -30.34945,39.15708 -56.32617,56.74804 -15.37856,10.41409 -28.80238,17.92854 -67.75196,37.91992 -36.32327,18.64338 -43.59521,22.84636 -57.32226,33.14063 -11.05458,8.29013 -9.89892,8.79085 -16.05274,-6.93945 -10.43038,-26.66195 -14.70098,-57.78839 -11.82617,-86.20704 4.06879,-40.22176 19.11744,-74.5145 45.9082,-104.61718 33.50409,-37.64588 80.04884,-59.64481 128.97852,-61.64649 z" />
  </g>
</svg>
